#!OML:ASF E:\Steps\Project 1\Capture day 1\Session 2\Subject.ASF
:FULLY-SPECIFIED
:DEGREES
578
root 12.284 18.0577 17.0287 -152.934 0.0987242 176.036
lowerback -24.6284 -2.34042 -7.71343
upperback 0.0157821 -1.08347 -0.967707
thorax 14.028 -1.13479 2.88728
lowerneck 2.62766 -2.12817 0.00423997
upperneck 1.62497 -2.79862 2.0474
head 0.0941206 -1.37997 0.636809
rclavicle -9.83984e-015 -1.35174e-014
rhumerus -38.3465 -13.6521 -78.3068
rradius 31.5177
rwrist -5.08146
rhand -8.28782 -50.5915
rfingers 7.12502
rthumb 17.6319 -79.8121
lclavicle -9.83984e-015 -1.35174e-014
lhumerus -33.2668 5.51417 76.0609
lradius 26.1834
lwrist -3.12886
lhand -22.0554 -12.0342
lfingers 7.12502
lthumb 4.3553 17.901
rfemur 155.025 -182.419 -159.427
rtibia 7.97094
rfoot -18.7766 -3.43484
rtoes -15.7296
lfemur -25.8191 -7.67253 -23.2072
ltibia 9.90793
lfoot -6.56068 -6.02131
ltoes -34.6054
579
root 12.2807 18.0544 17.0179 -152.971 0.173497 176.036
lowerback -24.7682 -2.33154 -7.68644
upperback -0.0569085 -1.08004 -0.977462
thorax 14.0181 -1.13354 2.85994
lowerneck 2.51813 -2.09445 -0.0910468
upperneck 1.6081 -2.75806 2.23175
head 0.110217 -1.36002 0.707614
rclavicle 5.1684e-015 1.35174e-014
rhumerus -38.1557 -13.6243 -78.4685
rradius 31.6267
rwrist -5.11844
rhand -8.46162 -51.2052
rfingers 7.12502
rthumb 17.4646 -80.4406
lclavicle 5.1684e-015 1.35174e-014
lhumerus -33.0705 5.18629 76.326
lradius 26.4994
lwrist -2.73025
lhand -22.1893 -12.0455
lfingers 7.12502
lthumb 4.22594 17.8923
rfemur 155.042 -182.379 -159.443
rtibia 8.07309
rfoot -17.8423 -3.49069
rtoes -20.197
lfemur -25.6542 -7.61103 -23.2556
ltibia 9.7567
lfoot -6.49584 -5.93653
ltoes -35.1095
580
root 12.2785 18.0521 17.0105 -152.989 0.215688 176.113
lowerback -24.9022 -2.277 -7.61452
upperback -0.140446 -1.03186 -0.975454
thorax 13.986 -1.10852 2.83751
lowerneck 2.32512 -2.12737 0.117114
upperneck 1.91338 -2.79887 2.0326
head 0.228826 -1.37401 0.608056
rclavicle 2.98177e-015 2.8625e-014
rhumerus -38.0558 -13.6865 -78.5969
rradius 31.8032
rwrist -5.21434
rhand -8.4548 -51.1529
rfingers 7.12502
rthumb 17.4712 -80.3878
lclavicle 2.98177e-015 2.8625e-014
lhumerus -32.8514 4.79122 76.6547
lradius 26.7821
lwrist -2.54126
lhand -22.3344 -12.1424
lfingers 7.12502
lthumb 4.08583 17.7981
rfemur 155.067 -182.447 -159.399
rtibia 8.09949
rfoot -18.9163 -3.34127
rtoes -15.4489
lfemur -25.5243 -7.74809 -23.1327
ltibia 9.60403
lfoot -6.8432 -5.68331
ltoes -38.7303
581
root 12.2756 18.0502 17.0031 -153.009 0.224826 176.195
lowerback -25.109 -2.24258 -7.58024
upperback -0.205832 -0.996316 -0.918075
thorax 14.0198 -1.09563 2.89459
lowerneck 2.38172 -2.1529 0.212719
upperneck 1.95137 -2.82876 1.8153
head 0.22681 -1.38844 0.526599
rclavicle -1.2424e-014 -2.22639e-014
rhumerus -37.987 -13.7027 -78.6272
rradius 31.9948
rwrist -5.46204
rhand -8.38095 -50.2188
rfingers 7.12502
rthumb 17.5423 -79.4473
lclavicle -1.2424e-014 -2.22639e-014
lhumerus -32.5983 4.63138 77.0598
lradius 27.0466
lwrist -2.61415
lhand -22.5769 -12.1256
lfingers 7.12502
lthumb 3.85169 17.8193
rfemur 155.206 -182.498 -159.338
rtibia 7.92785
rfoot -17.8485 -3.41506
rtoes -18.8697
lfemur -25.4331 -7.87657 -23.004
ltibia 9.52921
lfoot -6.64085 -5.47855
ltoes -35.8366
582
root 12.2716 18.0486 16.9922 -153.039 0.26894 176.195
lowerback -25.3749 -2.24436 -7.60328
upperback -0.223595 -0.978832 -0.88304
thorax 14.1463 -1.097 2.95018
lowerneck 2.58189 -2.26832 0.216075
upperneck 1.52058 -2.9815 1.80993
head 0.0654431 -1.47238 0.530862
rclavicle 3.97569e-015 3.1408e-014
rhumerus -37.7799 -13.5604 -78.7565
rradius 32.1448
rwrist -5.81577
rhand -8.67428 -50.1252
rfingers 7.12502
rthumb 17.26 -79.3787
lclavicle 3.97569e-015 3.1408e-014
lhumerus -32.3095 4.56424 77.4024
lradius 27.3595
lwrist -2.48241
lhand -22.5477 -12.3018
lfingers 7.12502
lthumb 3.8799 17.6427
rfemur 155.409 -182.385 -159.324
rtibia 7.69659
rfoot -18.7664 -3.24488
rtoes -15.9751
lfemur -25.2955 -7.90437 -23.0181
ltibia 9.4274
lfoot -7.1979 -5.48002
ltoes -39.0185
583
root 12.2673 18.046 16.9799 -153.053 0.311983 176.207
lowerback -25.5862 -2.21811 -7.55428
upperback -0.291523 -0.953727 -0.894332
thorax 14.1783 -1.08642 2.91531
lowerneck 2.71878 -2.39341 0.391186
upperneck 1.42691 -3.14078 1.66282
head 0.0114936 -1.55257 0.461315
rclavicle 2.68359e-015 -3.06128e-014
rhumerus -37.7015 -13.3563 -78.9218
rradius 32.3091
rwrist -5.93755
rhand -8.7317 -50.3202
rfingers 7.12502
rthumb 17.2047 -79.5786
lclavicle 2.68359e-015 -3.06128e-014
lhumerus -32.1307 4.34108 77.6916
lradius 27.6793
lwrist -2.20916
lhand -22.5847 -12.4052
lfingers 7.12502
lthumb 3.84416 17.5399
rfemur 155.555 -182.291 -159.29
rtibia 7.5392
rfoot -17.6975 -3.27093
rtoes -20.9561
lfemur -25.1238 -7.92737 -23.0338
ltibia 9.24799
lfoot -6.58555 -5.38083
ltoes -33.494
